<svg xmlns="http://www.w3.org/2000/svg" xmlns:xlink="http://www.w3.org/1999/xlink" width="500" zoomAndPan="magnify" viewBox="0 0 375 374.999991" height="500" preserveAspectRatio="xMidYMid meet" version="1.0"><defs><clipPath id="id1"><path d="M 90 102 L 372 102 L 372 291.832031 L 90 291.832031 Z M 90 102 " clip-rule="nonzero"/></clipPath><clipPath id="id2"><path d="M 3 83.332031 L 285 83.332031 L 285 273 L 3 273 Z M 3 83.332031 " clip-rule="nonzero"/></clipPath></defs><g clip-path="url(#id1)"><path fill="#ffffff" d="M 200.894531 291.234375 C 268.871094 284.828125 324.851562 238.40625 371.433594 176.378906 C 330.25 138.960938 290.261719 114.347656 251.277344 102.742188 C 263.074219 110.945312 273.46875 121.351562 281.265625 133.558594 C 302.859375 144.363281 324.851562 159.371094 347.441406 178.578125 C 328.050781 202.789062 308.257812 222.199219 288.261719 237.207031 C 283.265625 240.808594 278.46875 244.210938 273.46875 247.410156 C 243.480469 266.421875 212.492188 275.226562 180.503906 274.226562 C 143.515625 269.621094 113.527344 239.808594 109.929688 201.191406 C 106.128906 160.769531 132.71875 124.554688 170.707031 114.949219 C 147.714844 119.152344 125.121094 128.957031 102.929688 143.761719 C 93.734375 160.769531 89.136719 180.378906 91.136719 201.191406 C 93.335938 224.199219 103.128906 244.609375 117.925781 260.417969 C 137.316406 280.828125 164.90625 293.035156 194.898438 291.632812 C 196.898438 291.433594 198.894531 291.433594 200.894531 291.234375 Z M 200.894531 291.234375 " fill-opacity="1" fill-rule="evenodd"/></g><g clip-path="url(#id2)"><path fill="#ff914d" d="M 174.105469 83.933594 C 106.128906 90.335938 50.148438 136.757812 3.566406 198.789062 C 44.550781 236.207031 84.738281 260.820312 123.722656 272.425781 C 111.925781 264.21875 101.53125 253.816406 93.734375 241.609375 C 72.140625 230.804688 50.148438 215.796875 27.558594 196.585938 C 46.949219 172.375 66.742188 152.964844 86.738281 137.960938 C 91.734375 134.359375 96.53125 130.957031 101.53125 127.753906 C 131.519531 108.945312 162.507812 99.941406 194.496094 100.941406 C 231.484375 105.542969 261.472656 135.359375 265.070312 173.976562 C 268.871094 214.394531 242.28125 250.613281 204.292969 260.21875 C 227.285156 256.015625 249.878906 246.210938 272.070312 231.40625 C 281.265625 214.394531 285.863281 194.785156 283.863281 173.976562 C 281.664062 150.964844 271.871094 130.554688 257.074219 114.75 C 237.683594 94.339844 210.09375 82.132812 180.101562 83.535156 C 178.101562 83.734375 176.105469 83.734375 174.105469 83.933594 Z M 174.105469 83.933594 " fill-opacity="1" fill-rule="evenodd"/></g><path fill="#8c52ff" d="M 125.921875 194.386719 C 122.722656 160.171875 147.914062 129.753906 182.101562 126.554688 C 216.289062 123.351562 246.679688 148.363281 249.878906 182.78125 C 253.074219 216.996094 227.886719 247.410156 193.699219 250.613281 C 159.511719 253.816406 129.121094 228.601562 125.921875 194.386719 Z M 189.898438 142.5625 C 186.5 142.960938 184.101562 145.964844 184.300781 149.164062 C 184.699219 152.566406 187.699219 154.96875 190.898438 154.769531 C 205.695312 153.367188 218.886719 164.371094 220.289062 179.179688 C 220.6875 182.582031 223.6875 184.980469 226.886719 184.78125 C 230.285156 184.382812 232.683594 181.378906 232.484375 178.179688 C 230.484375 156.570312 211.292969 140.761719 189.699219 142.761719 Z M 189.898438 142.5625 " fill-opacity="1" fill-rule="evenodd"/></svg>