<svg width="118" height="40" viewBox="0 0 118 40" fill="none" xmlns="http://www.w3.org/2000/svg">
<g clip-path="url(#clip0_1208_2185)">
<path d="M39.808 20.6583C39.7703 19.0859 39.1738 18.4459 38.1603 17.7423C37.1035 17.0464 35.9024 16.5998 34.6477 16.4363C34.4219 16.3986 34.1902 16.3726 33.9614 16.3523C33.8918 16.3556 33.8225 16.3404 33.7606 16.3084C33.6987 16.2764 33.6463 16.2286 33.6087 16.1699C33.5711 16.1111 33.5497 16.0435 33.5465 15.9739C33.5434 15.9042 33.5586 15.835 33.5908 15.7731C34.196 13.9227 33.6545 12.3503 32.3948 10.9748C32.1152 10.7111 31.7993 10.4887 31.4566 10.3146C31.196 10.1553 31.1236 10.0511 31.2713 9.78757C31.4189 9.52406 31.6101 9.30977 31.7664 9.06073C31.978 8.74081 32.1714 8.4092 32.3456 8.06748C32.4305 7.88248 32.4664 7.6787 32.4497 7.4758C32.4329 7.27291 32.3642 7.07775 32.25 6.90918C32.0717 6.61168 31.8281 6.35858 31.5376 6.16896C31.2472 5.97935 30.9175 5.85817 30.5734 5.81457C30.3736 5.77693 30.3012 5.71901 30.3243 5.49604C30.4369 4.81323 30.3964 4.11395 30.2056 3.44873C30.0992 3.14661 29.9393 2.86609 29.7336 2.62054C29.5698 2.44989 29.3548 2.33724 29.1213 2.29962C28.8877 2.26201 28.6483 2.30147 28.4392 2.41205C28.2968 2.49013 28.1801 2.60781 28.1033 2.75085C27.9759 2.99409 28.1207 3.17074 28.3929 3.13309C28.5753 3.10703 28.7577 3.0578 28.9402 3.04622C29.1438 3.02563 29.3486 3.07074 29.5247 3.17495C29.7008 3.27916 29.839 3.437 29.9189 3.62537C30.2317 4.2943 30.2085 5.00955 30.2085 5.72191C29.7133 5.76824 29.2471 5.81168 28.8012 5.85801C28.6083 5.29515 28.385 4.74318 28.1322 4.20453C27.8952 3.76229 27.6033 3.35171 27.2635 2.98251C27.1127 2.80598 26.9216 2.66831 26.7064 2.58113C26.4912 2.49394 26.2582 2.45978 26.027 2.48154C25.863 2.49002 25.7064 2.55208 25.5811 2.65819C25.5372 2.72224 25.5066 2.79448 25.4912 2.87059C25.4757 2.94671 25.4758 3.02514 25.4913 3.10124C25.5006 3.14273 25.5189 3.18167 25.545 3.21528C25.5711 3.24888 25.6042 3.27634 25.6421 3.29569C25.68 3.31504 25.7216 3.32581 25.7641 3.32724C25.8066 3.32866 25.8489 3.32071 25.888 3.30394C26.8552 3.01437 27.4749 3.48058 27.9151 4.25375C28.2046 4.77789 28.4421 5.33677 28.6882 5.85222C27.9903 6.30106 27.333 6.67462 26.7307 7.12346C26.1744 7.53067 25.6577 7.98926 25.1872 8.49316C24.498 9.24317 24.6399 9.84549 25.6187 10.1438C26.4136 10.3397 27.2203 10.4838 28.0338 10.5752C28.3234 10.6187 28.6129 10.6476 28.8765 10.7055C29.0273 10.7522 29.1736 10.8123 29.3137 10.8851C28.9934 11.2944 28.7929 11.7846 28.7346 12.3011C28.6446 12.9595 28.6999 13.6297 28.8967 14.2644C28.9274 14.325 28.9358 14.3945 28.9204 14.4607C28.9051 14.5268 28.867 14.5855 28.8127 14.6264C28.4739 14.916 28.1525 15.2056 27.8137 15.4951C27.7355 15.5559 18.999 11.1515 18.999 11.1515L19.5086 12.2113V12.2316C20.1225 12.4198 26.6033 16.2596 27.6168 16.5753C27.7088 16.6117 27.8098 16.619 27.9061 16.5962C28.0024 16.5734 28.0895 16.5216 28.1554 16.4478C28.5637 16.0627 28.9865 15.6978 29.3311 15.3938C29.5801 15.5907 29.8176 15.7644 30.0319 15.9729C30.0782 16.0135 27.443 18.2896 27.443 18.2896L16.5318 15.9411L16.2856 16.61C16.2856 16.61 27.7124 19.3552 27.9237 19.2162C28.1351 19.0772 30.8629 16.6766 30.9498 16.5868C30.9913 16.8585 31.0493 17.1273 31.1236 17.3919C31.2352 17.7519 31.2442 18.136 31.1496 18.5009C30.997 19.1344 31.0707 19.8013 31.3581 20.3861C31.4421 20.554 31.3581 20.638 31.2539 20.7307C30.5299 21.3417 29.8321 21.9875 29.0792 22.5608C28.7857 22.7758 28.5449 23.0545 28.3749 23.376C28.2049 23.6976 28.11 24.0535 28.0975 24.417C27.9961 25.9431 27.8774 27.4662 27.7616 28.9894C27.7442 29.2356 27.7152 29.4817 27.7095 29.7307C27.7095 29.89 27.6371 29.9363 27.4923 29.9421C27.1795 29.9421 26.8668 29.9682 26.554 29.9972C26.1139 30.0319 25.9749 30.1796 25.9517 30.6197C25.9517 30.7558 25.9141 30.8224 25.8388 30.8572H28.5869V30.6979C28.5869 30.5966 28.5869 30.5242 28.5869 30.4518C28.5869 30.3128 28.6042 30.1622 28.6158 30.0261C28.6795 29.0039 28.749 27.9788 28.8214 26.9566C28.8736 26.2008 28.9431 25.4508 28.9836 24.6979C28.9866 24.3936 29.0632 24.0945 29.2069 23.8262C29.3507 23.5579 29.5572 23.3284 29.8089 23.1573C30.1998 22.8851 30.5473 22.5492 30.9122 22.2394L31.9228 21.3707L33.1883 22.4566C32.4267 23.2413 31.6853 24.0348 30.9093 24.7732C30.7085 24.9492 30.5515 25.1696 30.451 25.417C30.3504 25.6643 30.309 25.9317 30.3301 26.1979C30.3938 27.2896 30.417 28.3842 30.4575 29.4788C30.4575 29.5946 30.4575 29.7134 30.4575 29.8755C30.1419 29.8755 29.861 29.8755 29.5888 29.8755C29.0241 29.8755 28.9488 29.9624 28.9431 30.5155V30.8485H31.4334V30.417C31.4334 30.2172 31.416 30.0145 31.4103 29.8118C31.3639 28.6246 31.3205 27.4402 31.2713 26.2529C31.2668 26.0825 31.2995 25.9132 31.367 25.7567C31.4345 25.6002 31.5352 25.4603 31.6622 25.3465C32.2413 24.7442 32.8379 24.1332 33.4257 23.5222L34.0049 22.9431C34.891 23.6265 35.7829 24.2925 36.6429 24.9933C36.8391 25.1826 36.9974 25.4077 37.1091 25.6564C37.14 25.7336 37.1883 25.8027 37.2502 25.8582C37.3121 25.9138 37.3859 25.9543 37.466 25.9767C37.5461 25.9991 37.6303 26.0028 37.712 25.9874C37.7938 25.972 37.8708 25.938 37.9373 25.8881C38.0786 25.7855 38.1978 25.6555 38.2877 25.5058C38.4586 25.167 39.8456 22.2278 39.808 20.6583ZM25.4276 9.33583C25.335 9.2421 25.2534 9.13815 25.1843 9.02598L25.2394 8.93911C26.1081 9.22869 26.9768 9.50379 27.8456 9.02019C27.3185 9.66884 26.0444 9.81942 25.4276 9.33583ZM30.249 8.32521C30.0894 8.32691 29.9329 8.28095 29.7996 8.19321C29.6662 8.10547 29.5621 7.97994 29.5005 7.83268C29.4389 7.68542 29.4226 7.52313 29.4538 7.36657C29.4849 7.21002 29.5621 7.06632 29.6754 6.95386C29.7887 6.8414 29.9329 6.7653 30.0897 6.7353C30.2465 6.70529 30.4087 6.72274 30.5555 6.78542C30.7023 6.8481 30.827 6.95316 30.9138 7.08714C31.0005 7.22113 31.0454 7.37796 31.0425 7.53756C31.0394 7.74802 30.9535 7.94878 30.8033 8.09625C30.6531 8.24372 30.4508 8.32599 30.2404 8.32521H30.249Z" fill="white"/>
<path d="M22.8036 8.98656L15.9404 7.77639C15.1527 7.6375 14.4016 8.16346 14.2627 8.95117L13.0525 15.8144C12.9136 16.6021 13.4396 17.3532 14.2273 17.4921L21.0905 18.7023C21.8782 18.8412 22.6293 18.3152 22.7682 17.5275L23.9784 10.6643C24.1173 9.87661 23.5913 9.12545 22.8036 8.98656Z" fill="white"/>
<path fill-rule="evenodd" clip-rule="evenodd" d="M8.41733 9.42859H1.44827C0.648412 9.42859 0 10.077 0 10.8769V17.8459C0 18.6458 0.648412 19.2942 1.44827 19.2942H8.41733C9.21719 19.2942 9.8656 18.6458 9.8656 17.8459V10.8769C9.8656 10.077 9.21719 9.42859 8.41733 9.42859ZM19.9282 20.9394H12.9591C12.1593 20.9394 11.5108 21.5878 11.5108 22.3877V29.3568C11.5108 30.1566 12.1593 30.805 12.9591 30.805H19.9282C20.728 30.805 21.3764 30.1566 21.3764 29.3568V22.3877C21.3764 21.5878 20.728 20.9394 19.9282 20.9394ZM1.44827 20.9394H8.41733C9.21719 20.9394 9.8656 21.5878 9.8656 22.3877V29.3568C9.8656 30.1566 9.21719 30.805 8.41733 30.805H1.44827C0.648412 30.805 0 30.1566 0 29.3568V22.3877C0 21.5878 0.648412 20.9394 1.44827 20.9394Z" fill="white"/>
<path d="M52.3026 14.6914V17.8229H45.7655V21.2057H50.6569V24.2457H45.7655V30.7372H41.8569V14.6914H52.3026Z" fill="white"/>
<path d="M56.3226 16.6572C55.6369 16.6572 55.0731 16.4591 54.6312 16.0629C54.2046 15.6514 53.9912 15.1486 53.9912 14.5543C53.9912 13.9448 54.2046 13.4419 54.6312 13.0457C55.0731 12.6343 55.6369 12.4286 56.3226 12.4286C56.9931 12.4286 57.5417 12.6343 57.9684 13.0457C58.4103 13.4419 58.6312 13.9448 58.6312 14.5543C58.6312 15.1486 58.4103 15.6514 57.9684 16.0629C57.5417 16.4591 56.9931 16.6572 56.3226 16.6572ZM58.2655 17.9829V30.7372H54.3569V17.9829H58.2655Z" fill="white"/>
<path d="M60.3209 24.3372C60.3209 23.0267 60.5647 21.8762 61.0523 20.8857C61.5551 19.8953 62.2332 19.1334 63.0866 18.6C63.9399 18.0667 64.8923 17.8 65.9437 17.8C66.8428 17.8 67.6275 17.9829 68.298 18.3486C68.9837 18.7143 69.5094 19.1943 69.8751 19.7886V17.9829H73.7837V30.7372H69.8751V28.9314C69.4942 29.5257 68.9609 30.0057 68.2751 30.3714C67.6047 30.7372 66.8199 30.92 65.9209 30.92C64.8847 30.92 63.9399 30.6534 63.0866 30.12C62.2332 29.5714 61.5551 28.8019 61.0523 27.8114C60.5647 26.8057 60.3209 25.6476 60.3209 24.3372ZM69.8751 24.36C69.8751 23.3848 69.6009 22.6153 69.0523 22.0514C68.519 21.4876 67.8637 21.2057 67.0866 21.2057C66.3094 21.2057 65.6466 21.4876 65.098 22.0514C64.5647 22.6 64.298 23.3619 64.298 24.3372C64.298 25.3124 64.5647 26.0895 65.098 26.6686C65.6466 27.2324 66.3094 27.5143 67.0866 27.5143C67.8637 27.5143 68.519 27.2324 69.0523 26.6686C69.6009 26.1048 69.8751 25.3353 69.8751 24.36Z" fill="white"/>
<path d="M84.3828 17.8457C85.8762 17.8457 87.0647 18.3334 87.9485 19.3086C88.8476 20.2686 89.2971 21.5943 89.2971 23.2857V30.7372H85.4114V23.8114C85.4114 22.9581 85.1904 22.2953 84.7485 21.8229C84.3066 21.3505 83.7123 21.1143 82.9657 21.1143C82.219 21.1143 81.6247 21.3505 81.1828 21.8229C80.7409 22.2953 80.52 22.9581 80.52 23.8114V30.7372H76.6114V17.9829H80.52V19.6743C80.9162 19.1105 81.4495 18.6686 82.12 18.3486C82.7904 18.0134 83.5447 17.8457 84.3828 17.8457Z" fill="white"/>
<path d="M99.1217 27.4229V30.7372H97.1332C95.716 30.7372 94.6113 30.3943 93.8189 29.7086C93.0265 29.0076 92.6303 27.8724 92.6303 26.3029V21.2286H91.076V17.9829H92.6303V14.8743H96.5389V17.9829H99.0989V21.2286H96.5389V26.3486C96.5389 26.7295 96.6303 27.0038 96.8132 27.1714C96.996 27.3391 97.3008 27.4229 97.7275 27.4229H99.1217Z" fill="white"/>
<path d="M104.252 15.1329V16.1272H102.893V20.2276H101.644V16.1272H100.286V15.1329H104.252Z" fill="white"/>
<path d="M108.721 18.1375C108.721 18.2536 108.714 18.3746 108.699 18.5004H105.872C105.892 18.7519 105.972 18.9455 106.113 19.081C106.26 19.2116 106.437 19.2769 106.647 19.2769C106.958 19.2769 107.175 19.1463 107.297 18.885H108.626C108.558 19.1511 108.434 19.3906 108.254 19.6035C108.078 19.8164 107.857 19.9833 107.589 20.1043C107.321 20.2252 107.022 20.2857 106.691 20.2857C106.291 20.2857 105.936 20.201 105.624 20.0317C105.312 19.8623 105.069 19.6204 104.894 19.3059C104.718 18.9914 104.631 18.6237 104.631 18.2028C104.631 17.7819 104.716 17.4142 104.886 17.0997C105.062 16.7852 105.305 16.5433 105.617 16.3739C105.928 16.2046 106.286 16.1199 106.691 16.1199C107.085 16.1199 107.436 16.2022 107.742 16.3667C108.049 16.5312 108.288 16.7658 108.458 17.0706C108.634 17.3755 108.721 17.7311 108.721 18.1375ZM107.443 17.8109C107.443 17.598 107.37 17.4287 107.224 17.3029C107.078 17.1771 106.895 17.1142 106.676 17.1142C106.467 17.1142 106.289 17.1747 106.143 17.2956C106.001 17.4166 105.914 17.5883 105.88 17.8109H107.443Z" fill="white"/>
<path d="M109.132 18.2028C109.132 17.7819 109.217 17.4142 109.388 17.0997C109.563 16.7852 109.804 16.5433 110.111 16.3739C110.422 16.2046 110.778 16.1199 111.177 16.1199C111.688 16.1199 112.115 16.253 112.455 16.5191C112.801 16.7852 113.028 17.1601 113.135 17.644H111.805C111.693 17.3343 111.477 17.1795 111.155 17.1795C110.926 17.1795 110.744 17.269 110.607 17.448C110.471 17.6222 110.403 17.8738 110.403 18.2028C110.403 18.5318 110.471 18.7858 110.607 18.9648C110.744 19.139 110.926 19.2261 111.155 19.2261C111.477 19.2261 111.693 19.0713 111.805 18.7616H113.135C113.028 19.2358 112.801 19.6083 112.455 19.8793C112.11 20.1502 111.684 20.2857 111.177 20.2857C110.778 20.2857 110.422 20.201 110.111 20.0317C109.804 19.8623 109.563 19.6204 109.388 19.3059C109.217 18.9914 109.132 18.6237 109.132 18.2028Z" fill="white"/>
<path d="M116.308 16.1344C116.776 16.1344 117.151 16.2893 117.433 16.5989C117.716 16.9037 117.857 17.3246 117.857 17.8617V20.2276H116.615V18.0286C116.615 17.7577 116.545 17.5472 116.403 17.3972C116.262 17.2472 116.072 17.1722 115.834 17.1722C115.595 17.1722 115.405 17.2472 115.264 17.3972C115.123 17.5472 115.052 17.7577 115.052 18.0286V20.2276H113.803V14.8571H115.052V16.7223C115.179 16.5433 115.352 16.4005 115.571 16.2941C115.79 16.1876 116.036 16.1344 116.308 16.1344Z" fill="white"/>
</g>
<defs>
<clipPath id="clip0_1208_2185">
<rect width="117.857" height="40" fill="white"/>
</clipPath>
</defs>
</svg>
