<svg width="825" height="280" viewBox="0 0 825 280" fill="none" xmlns="http://www.w3.org/2000/svg">
<path d="M278.656 144.608C278.393 133.601 274.217 129.121 267.123 124.195C259.725 119.324 251.317 116.198 242.535 115.053C240.953 114.79 239.332 114.608 237.73 114.466C237.243 114.488 236.758 114.382 236.325 114.158C235.891 113.934 235.524 113.6 235.261 113.189C234.998 112.778 234.848 112.304 234.826 111.817C234.804 111.329 234.911 110.845 235.136 110.412C239.372 97.4588 235.582 86.4519 226.764 76.8235C224.807 74.977 222.595 73.4207 220.197 72.2018C218.372 71.087 217.865 70.3572 218.899 68.5126C219.933 66.668 221.271 65.168 222.365 63.4248C223.847 61.1853 225.2 58.8641 226.42 56.472C227.014 55.177 227.265 53.7505 227.148 52.3302C227.031 50.91 226.55 49.5439 225.751 48.3639C224.502 46.2814 222.797 44.5097 220.764 43.1824C218.731 41.8551 216.423 41.0068 214.014 40.7017C212.615 40.4381 212.109 40.0327 212.271 38.4719C213.059 33.6923 212.775 28.7973 211.44 24.1407C210.695 22.0259 209.576 20.0623 208.136 18.3434C206.989 17.1489 205.484 16.3603 203.85 16.097C202.215 15.8337 200.539 16.1099 199.075 16.8839C198.078 17.4305 197.261 18.2543 196.723 19.2556C195.832 20.9583 196.845 22.1948 198.75 21.9313C200.028 21.7488 201.305 21.4042 202.582 21.3232C204.007 21.179 205.441 21.4948 206.674 22.2243C207.906 22.9537 208.873 24.0586 209.433 25.3772C211.622 30.0597 211.46 35.0665 211.46 40.053C207.994 40.3773 204.73 40.6814 201.609 41.0057C200.258 37.0657 198.695 33.2019 196.926 29.4313C195.267 26.3357 193.224 23.4616 190.845 20.8772C189.789 19.6415 188.452 18.6778 186.945 18.0675C185.439 17.4572 183.808 17.2181 182.19 17.3704C181.042 17.4298 179.945 17.8642 179.068 18.6069C178.761 19.0553 178.547 19.561 178.439 20.0938C178.331 20.6266 178.331 21.1756 178.44 21.7083C178.505 21.9988 178.633 22.2713 178.816 22.5066C178.998 22.7418 179.23 22.934 179.495 23.0695C179.76 23.2049 180.052 23.2803 180.349 23.2903C180.647 23.3003 180.943 23.2446 181.217 23.1272C187.987 21.1002 192.325 24.3637 195.406 29.7759C197.433 33.4449 199.095 37.357 200.818 40.9652C195.933 44.1071 191.332 46.722 187.115 49.8639C183.222 52.7144 179.604 55.9244 176.311 59.4518C171.487 64.7018 172.48 68.918 179.331 71.0059C184.895 72.3773 190.542 73.3861 196.237 74.0262C198.264 74.3302 200.291 74.5329 202.136 74.9383C203.191 75.265 204.216 75.6856 205.196 76.1951C202.954 79.0604 201.551 82.4918 201.142 86.1073C200.512 90.7164 200.9 95.4074 202.278 99.8507C202.492 100.275 202.551 100.761 202.444 101.224C202.336 101.687 202.069 102.098 201.69 102.384C199.318 104.411 197.068 106.439 194.696 108.466C194.149 108.891 132.993 78.06 132.993 78.06L136.561 85.479V85.6208C140.858 86.9384 186.223 113.817 193.318 116.026C193.962 116.281 194.669 116.333 195.343 116.173C196.018 116.014 196.627 115.651 197.088 115.135C199.946 112.439 202.906 109.884 205.318 107.756C207.061 109.134 208.724 110.351 210.224 111.81C210.548 112.094 192.102 128.026 192.102 128.026L115.723 111.587L114 116.27C114 116.27 193.987 135.486 195.467 134.513C196.946 133.54 216.041 116.736 216.649 116.108C216.939 118.009 217.346 119.891 217.865 121.743C218.647 124.263 218.71 126.952 218.048 129.506C216.979 133.94 217.496 138.609 219.507 142.702C220.095 143.878 219.507 144.466 218.778 145.114C213.71 149.391 208.825 153.912 203.555 157.925C201.501 159.43 199.815 161.381 198.625 163.632C197.434 165.883 196.771 168.374 196.683 170.919C195.973 181.601 195.142 192.263 194.332 202.926C194.21 204.649 194.007 206.372 193.967 208.115C193.967 209.23 193.46 209.554 192.446 209.595C190.257 209.595 188.068 209.777 185.879 209.98C182.798 210.223 181.825 211.257 181.663 214.338C181.663 215.291 181.399 215.757 180.872 216H200.109V214.885C200.109 214.176 200.109 213.669 200.109 213.162C200.109 212.189 200.23 211.135 200.311 210.182C200.757 203.027 201.244 195.851 201.751 188.696C202.115 183.405 202.602 178.155 202.886 172.885C202.907 170.755 203.443 168.661 204.449 166.783C205.455 164.905 206.901 163.299 208.663 162.101C211.399 160.196 213.832 157.844 216.386 155.675L223.46 149.594L232.318 157.196C226.987 162.689 221.798 168.243 216.365 173.412C214.96 174.644 213.861 176.187 213.157 177.918C212.453 179.65 212.164 181.522 212.311 183.385C212.757 191.027 212.92 198.689 213.203 206.351C213.203 207.162 213.203 207.993 213.203 209.128C210.994 209.128 209.028 209.128 207.122 209.128C203.169 209.128 202.642 209.736 202.602 213.608V215.939H220.034V212.919C220.034 211.52 219.913 210.101 219.872 208.682C219.548 200.372 219.244 192.081 218.899 183.77C218.868 182.577 219.097 181.392 219.569 180.297C220.042 179.201 220.747 178.221 221.636 177.425C225.69 173.209 229.866 168.932 233.98 164.655L238.035 160.601C244.237 165.385 250.481 170.047 256.501 174.952C257.874 176.278 258.982 177.853 259.764 179.594C259.981 180.135 260.318 180.618 260.752 181.007C261.185 181.396 261.702 181.68 262.263 181.837C262.823 181.994 263.412 182.019 263.985 181.911C264.557 181.804 265.096 181.566 265.562 181.216C266.551 180.498 267.385 179.588 268.014 178.54C269.21 176.169 278.92 155.594 278.656 144.608ZM177.994 65.3505C177.346 64.6944 176.774 63.9667 176.291 63.1815L176.676 62.5734C182.757 64.6004 188.838 66.5261 194.919 63.141C191.23 67.6815 182.311 68.7356 177.994 65.3505ZM211.744 58.2761C210.627 58.288 209.531 57.9663 208.598 57.3521C207.664 56.7379 206.935 55.8592 206.504 54.8284C206.073 53.7976 205.959 52.6615 206.177 51.5657C206.395 50.4698 206.935 49.4639 207.728 48.6767C208.521 47.8895 209.531 47.3567 210.628 47.1467C211.726 46.9367 212.861 47.0588 213.889 47.4976C214.916 47.9363 215.79 48.6717 216.397 49.6096C217.004 50.5476 217.318 51.6453 217.298 52.7625C217.277 54.2357 216.675 55.6411 215.624 56.6734C214.572 57.7057 213.156 58.2816 211.683 58.2761H211.744Z" fill="#BE4C2F"/>
<path d="M159.627 62.9063L111.584 54.4351C106.071 53.4629 100.812 57.1446 99.8402 62.6585L91.369 110.701C90.3967 116.215 94.0785 121.473 99.5924 122.445L147.635 130.916C153.149 131.889 158.407 128.207 159.379 122.693L167.85 74.6505C168.822 69.1366 165.141 63.8785 159.627 62.9063Z" fill="#BE4C2F"/>
<path fill-rule="evenodd" clip-rule="evenodd" d="M58.9213 66H10.1379C4.53888 66 0 70.5389 0 76.1379V124.921C0 130.52 4.53888 135.059 10.1379 135.059H58.9213C64.5203 135.059 69.0592 130.52 69.0592 124.921V76.1379C69.0592 70.5389 64.5203 66 58.9213 66ZM139.497 146.576H90.7138C85.1148 146.576 80.5759 151.115 80.5759 156.714V205.497C80.5759 211.096 85.1148 215.635 90.7138 215.635H139.497C145.096 215.635 149.635 211.096 149.635 205.497V156.714C149.635 151.115 145.096 146.576 139.497 146.576ZM10.1379 146.576H58.9213C64.5203 146.576 69.0592 151.115 69.0592 156.714V205.497C69.0592 211.096 64.5203 215.635 58.9213 215.635H10.1379C4.53888 215.635 0 211.096 0 205.497V156.714C0 151.115 4.53888 146.576 10.1379 146.576Z" fill="#1C1926"/>
<path d="M366.12 102.84V124.76H320.36V148.44H354.6V169.72H320.36V215.16H293V102.84H366.12Z" fill="#BE4C2F"/>
<path d="M394.26 116.6C389.46 116.6 385.513 115.213 382.42 112.44C379.433 109.56 377.94 106.04 377.94 101.88C377.94 97.6133 379.433 94.0933 382.42 91.32C385.513 88.44 389.46 87 394.26 87C398.953 87 402.793 88.44 405.78 91.32C408.873 94.0933 410.42 97.6133 410.42 101.88C410.42 106.04 408.873 109.56 405.78 112.44C402.793 115.213 398.953 116.6 394.26 116.6ZM407.86 125.88V215.16H380.5V125.88H407.86Z" fill="#BE4C2F"/>
<path d="M422.247 170.36C422.247 161.187 423.954 153.133 427.368 146.2C430.888 139.267 435.634 133.933 441.607 130.2C447.581 126.467 454.247 124.6 461.607 124.6C467.901 124.6 473.394 125.88 478.088 128.44C482.888 131 486.568 134.36 489.128 138.52V125.88H516.488V215.16H489.128V202.52C486.461 206.68 482.728 210.04 477.928 212.6C473.234 215.16 467.741 216.44 461.447 216.44C454.194 216.44 447.581 214.573 441.607 210.84C435.634 207 430.888 201.613 427.368 194.68C423.954 187.64 422.247 179.533 422.247 170.36ZM489.128 170.52C489.128 163.693 487.208 158.307 483.368 154.36C479.634 150.413 475.048 148.44 469.607 148.44C464.167 148.44 459.527 150.413 455.688 154.36C451.954 158.2 450.088 163.533 450.088 170.36C450.088 177.187 451.954 182.627 455.688 186.68C459.527 190.627 464.167 192.6 469.607 192.6C475.048 192.6 479.634 190.627 483.368 186.68C487.208 182.733 489.128 177.347 489.128 170.52Z" fill="#BE4C2F"/>
<path d="M590.681 124.92C601.135 124.92 609.455 128.333 615.641 135.16C621.935 141.88 625.081 151.16 625.081 163V215.16H597.881V166.68C597.881 160.707 596.335 156.067 593.241 152.76C590.148 149.453 585.988 147.8 580.761 147.8C575.535 147.8 571.375 149.453 568.281 152.76C565.188 156.067 563.641 160.707 563.641 166.68V215.16H536.281V125.88H563.641V137.72C566.415 133.773 570.148 130.68 574.841 128.44C579.535 126.093 584.815 124.92 590.681 124.92Z" fill="#BE4C2F"/>
<path d="M693.854 191.96V215.16H679.934C670.014 215.16 662.28 212.76 656.734 207.96C651.187 203.053 648.414 195.107 648.414 184.12V148.6H637.534V125.88H648.414V104.12H675.774V125.88H693.694V148.6H675.774V184.44C675.774 187.107 676.414 189.027 677.694 190.2C678.974 191.373 681.107 191.96 684.094 191.96H693.854Z" fill="#BE4C2F"/>
<path d="M729.765 105.93V112.89H720.254V141.594H711.511V112.89H702V105.93H729.765Z" fill="#1C1926"/>
<path d="M761.049 126.963C761.049 127.775 760.998 128.622 760.896 129.503H741.107C741.244 131.264 741.806 132.619 742.795 133.567C743.817 134.481 745.062 134.939 746.528 134.939C748.709 134.939 750.226 134.024 751.078 132.195H760.384C759.907 134.058 759.038 135.734 757.777 137.225C756.55 138.715 754.999 139.883 753.124 140.73C751.249 141.577 749.152 142 746.834 142C744.039 142 741.551 141.407 739.369 140.222C737.187 139.037 735.483 137.343 734.256 135.142C733.028 132.94 732.415 130.366 732.415 127.42C732.415 124.473 733.011 121.899 734.204 119.698C735.432 117.496 737.136 115.803 739.318 114.618C741.499 113.432 744.005 112.84 746.834 112.84C749.595 112.84 752.05 113.415 754.197 114.567C756.345 115.718 758.015 117.361 759.208 119.495C760.436 121.628 761.049 124.118 761.049 126.963ZM752.101 124.676C752.101 123.186 751.59 122.001 750.567 121.12C749.544 120.24 748.266 119.799 746.732 119.799C745.266 119.799 744.022 120.223 742.999 121.07C742.011 121.916 741.397 123.119 741.159 124.676H752.101Z" fill="#1C1926"/>
<path d="M763.923 127.42C763.923 124.473 764.52 121.899 765.713 119.698C766.94 117.496 768.628 115.803 770.775 114.618C772.957 113.432 775.445 112.84 778.241 112.84C781.82 112.84 784.803 113.771 787.189 115.634C789.609 117.496 791.194 120.121 791.944 123.508H782.638C781.854 121.34 780.337 120.257 778.087 120.257C776.485 120.257 775.207 120.883 774.252 122.136C773.298 123.356 772.821 125.117 772.821 127.42C772.821 129.723 773.298 131.501 774.252 132.754C775.207 133.973 776.485 134.583 778.087 134.583C780.337 134.583 781.854 133.499 782.638 131.332H791.944C791.194 134.651 789.609 137.258 787.189 139.155C784.769 141.052 781.786 142 778.241 142C775.445 142 772.957 141.407 770.775 140.222C768.628 139.037 766.94 137.343 765.713 135.142C764.52 132.94 763.923 130.366 763.923 127.42Z" fill="#1C1926"/>
<path d="M814.16 112.941C817.432 112.941 820.057 114.025 822.034 116.193C824.011 118.326 825 121.273 825 125.032V141.594H816.307V126.201C816.307 124.304 815.813 122.831 814.825 121.781C813.836 120.731 812.507 120.206 810.836 120.206C809.166 120.206 807.836 120.731 806.848 121.781C805.859 122.831 805.365 124.304 805.365 126.201V141.594H796.621V104H805.365V117.056C806.251 115.803 807.461 114.804 808.995 114.059C810.529 113.314 812.251 112.941 814.16 112.941Z" fill="#1C1926"/>
</svg>
