<svg xmlns="http://www.w3.org/2000/svg" xmlns:xlink="http://www.w3.org/1999/xlink" width="500" zoomAndPan="magnify" viewBox="0 0 375 374.999991" height="500" preserveAspectRatio="xMidYMid meet" version="1.0"><defs><g/><clipPath id="id1"><path d="M 101 54 L 352 54 L 352 223.5 L 101 223.5 Z M 101 54 " clip-rule="nonzero"/></clipPath><clipPath id="id2"><path d="M 23 37.5 L 275 37.5 L 275 207 L 23 207 Z M 23 37.5 " clip-rule="nonzero"/></clipPath></defs><g clip-path="url(#id1)"><path fill="#ffffff" d="M 199.632812 222.964844 C 260.269531 217.253906 310.203125 175.839844 351.757812 120.503906 C 315.019531 87.125 279.351562 65.167969 244.574219 54.816406 C 255.09375 62.132812 264.371094 71.414062 271.324219 82.304688 C 290.585938 91.945312 310.203125 105.332031 330.355469 122.46875 C 313.058594 144.066406 295.402344 161.382812 277.566406 174.769531 C 273.109375 177.980469 268.828125 181.015625 264.371094 183.871094 C 237.617188 200.832031 209.976562 208.683594 181.441406 207.792969 C 148.445312 203.6875 121.695312 177.089844 118.484375 142.636719 C 115.097656 106.582031 138.816406 74.273438 172.703125 65.703125 C 152.191406 69.453125 132.039062 78.199219 112.242188 91.40625 C 104.039062 106.582031 99.9375 124.074219 101.722656 142.636719 C 103.683594 163.167969 112.421875 181.375 125.617188 195.476562 C 142.917969 213.683594 167.527344 224.570312 194.28125 223.320312 C 196.0625 223.144531 197.847656 223.144531 199.632812 222.964844 Z M 199.632812 222.964844 " fill-opacity="1" fill-rule="evenodd"/></g><g clip-path="url(#id2)"><path fill="#ff914d" d="M 175.734375 38.035156 C 115.097656 43.746094 65.160156 85.160156 23.605469 140.496094 C 60.167969 173.875 96.015625 195.832031 130.789062 206.183594 C 120.269531 198.867188 110.996094 189.585938 104.039062 178.695312 C 84.777344 169.054688 65.160156 155.667969 45.007812 138.53125 C 62.308594 116.933594 79.964844 99.617188 97.796875 86.230469 C 102.253906 83.019531 106.535156 79.984375 110.996094 77.128906 C 137.746094 60.347656 165.390625 52.316406 193.925781 53.207031 C 226.917969 57.3125 253.667969 83.910156 256.878906 118.363281 C 260.269531 154.417969 236.546875 186.726562 202.664062 195.296875 C 223.171875 191.546875 243.324219 182.800781 263.121094 169.59375 C 271.324219 154.417969 275.425781 136.925781 273.644531 118.363281 C 271.679688 97.832031 262.941406 79.625 249.746094 65.523438 C 232.445312 47.316406 207.835938 36.429688 181.082031 37.679688 C 179.300781 37.855469 177.515625 37.855469 175.734375 38.035156 Z M 175.734375 38.035156 " fill-opacity="1" fill-rule="evenodd"/></g><path fill="#8c52ff" d="M 132.753906 136.570312 C 129.898438 106.046875 152.371094 78.914062 182.867188 76.054688 C 213.363281 73.199219 240.472656 95.511719 243.324219 126.214844 C 246.179688 156.738281 223.707031 183.871094 193.210938 186.726562 C 162.714844 189.585938 135.605469 167.09375 132.753906 136.570312 Z M 189.820312 90.335938 C 186.789062 90.695312 184.648438 93.371094 184.828125 96.226562 C 185.183594 99.261719 187.859375 101.402344 190.714844 101.226562 C 203.910156 99.976562 215.683594 109.792969 216.929688 123.003906 C 217.285156 126.039062 219.960938 128.179688 222.816406 128 C 225.847656 127.644531 227.988281 124.964844 227.808594 122.109375 C 226.027344 102.832031 208.90625 88.730469 189.644531 90.515625 Z M 189.820312 90.335938 " fill-opacity="1" fill-rule="evenodd"/><g fill="#ffffff" fill-opacity="1"><g transform="translate(19.727894, 319.647766)"><g><path d="M 38.703125 -19.25 L 38.890625 -31.78125 C 38.890625 -32.644531 39.78125 -33.210938 41.5625 -33.484375 C 43.34375 -33.765625 44.816406 -33.90625 45.984375 -33.90625 L 49.578125 -33.625 C 51.910156 -33.257812 53.078125 -32.617188 53.078125 -31.703125 L 52.703125 -2.859375 C 51.472656 -1.992188 49 -1.144531 45.28125 -0.3125 C 41.570312 0.507812 37.320312 0.921875 32.53125 0.921875 C 23.625 0.921875 16.4375 -1.960938 10.96875 -7.734375 C 5.5 -13.515625 2.765625 -21.992188 2.765625 -33.171875 C 2.765625 -42.691406 5.4375 -50.429688 10.78125 -56.390625 C 16.125 -62.347656 23.523438 -65.328125 32.984375 -65.328125 C 37.285156 -65.328125 41.171875 -64.910156 44.640625 -64.078125 C 48.109375 -63.253906 50.488281 -62.132812 51.78125 -60.71875 C 51.84375 -60.226562 51.875 -59.304688 51.875 -57.953125 C 51.875 -56.597656 51.410156 -54.675781 50.484375 -52.1875 C 49.566406 -49.707031 48.523438 -47.851562 47.359375 -46.625 C 46.191406 -45.394531 45.347656 -44.78125 44.828125 -44.78125 C 44.304688 -44.78125 43.753906 -45.007812 43.171875 -45.46875 C 42.585938 -45.925781 41.429688 -46.414062 39.703125 -46.9375 C 37.984375 -47.46875 36.328125 -47.734375 34.734375 -47.734375 C 30.929688 -47.734375 27.84375 -46.503906 25.46875 -44.046875 C 23.101562 -41.585938 21.921875 -37.773438 21.921875 -32.609375 C 21.921875 -27.453125 23.132812 -23.535156 25.5625 -20.859375 C 27.988281 -18.191406 30.785156 -16.859375 33.953125 -16.859375 C 37.117188 -16.859375 38.703125 -17.65625 38.703125 -19.25 Z M 38.703125 -19.25 "/></g></g></g><g fill="#ffffff" fill-opacity="1"><g transform="translate(76.942364, 319.647766)"><g><path d="M 21.015625 -0.546875 C 21.015625 -0.0546875 18.203125 0.1875 12.578125 0.1875 C 6.953125 0.1875 4.140625 -0.0234375 4.140625 -0.453125 L 4.140625 -45.703125 C 4.140625 -46.128906 6.953125 -46.34375 12.578125 -46.34375 C 18.203125 -46.34375 21.015625 -46.160156 21.015625 -45.796875 Z M 21.015625 -51.234375 C 21.015625 -50.796875 18.203125 -50.578125 12.578125 -50.578125 C 6.953125 -50.578125 4.140625 -50.765625 4.140625 -51.140625 L 4.140625 -64.40625 C 4.140625 -65.019531 6.953125 -65.328125 12.578125 -65.328125 C 18.203125 -65.328125 21.015625 -65.144531 21.015625 -64.78125 Z M 21.015625 -51.234375 "/></g></g></g><g fill="#ffffff" fill-opacity="1"><g transform="translate(102.094622, 319.647766)"><g><path d="M 25.34375 -0.546875 C 25.34375 0.179688 22.757812 0.546875 17.59375 0.546875 C 11.457031 0.304688 8.390625 -0.0859375 8.390625 -0.640625 L 8.390625 -33.265625 L 3.6875 -33.265625 C 2.457031 -33.265625 1.84375 -35.382812 1.84375 -39.625 C 1.84375 -40.726562 1.945312 -42.078125 2.15625 -43.671875 C 2.375 -45.273438 2.820312 -46.078125 3.5 -46.078125 L 8.390625 -46.078125 L 8.390625 -54.171875 C 8.390625 -55.398438 10.984375 -56.015625 16.171875 -56.015625 C 21.359375 -56.015625 23.953125 -55.523438 23.953125 -54.546875 L 23.953125 -48.65625 L 24.046875 -46.078125 L 31.875 -46.078125 C 32.925781 -46.078125 33.453125 -43.925781 33.453125 -39.625 C 33.453125 -35.320312 32.925781 -33.171875 31.875 -33.171875 L 25.34375 -33.171875 Z M 25.34375 -0.546875 "/></g></g></g><g fill="#ff914d" fill-opacity="1"><g transform="translate(135.989601, 319.647766)"><g><path d="M 7 -22.484375 C 8.164062 -21.554688 10.175781 -20.296875 13.03125 -18.703125 C 15.894531 -17.109375 18.628906 -16.3125 21.234375 -16.3125 C 23.847656 -16.3125 25.15625 -17.320312 25.15625 -19.34375 C 25.15625 -20.269531 24.785156 -21.082031 24.046875 -21.78125 C 23.304688 -22.488281 21.953125 -23.300781 19.984375 -24.21875 C 18.023438 -25.144531 16.550781 -25.867188 15.5625 -26.390625 C 14.582031 -26.921875 13.28125 -27.785156 11.65625 -28.984375 C 10.03125 -30.179688 8.785156 -31.421875 7.921875 -32.703125 C 5.460938 -36.210938 4.234375 -40.664062 4.234375 -46.0625 C 4.234375 -51.46875 6.242188 -56.03125 10.265625 -59.75 C 14.296875 -63.46875 19.566406 -65.328125 26.078125 -65.328125 C 30.492188 -65.328125 34.578125 -64.847656 38.328125 -63.890625 C 42.078125 -62.941406 44.015625 -61.703125 44.140625 -60.171875 C 44.140625 -59.984375 44.140625 -59.796875 44.140625 -59.609375 C 44.140625 -57.460938 43.460938 -54.742188 42.109375 -51.453125 C 40.753906 -48.171875 39.800781 -46.347656 39.25 -45.984375 C 35.320312 -48.003906 31.804688 -49.015625 28.703125 -49.015625 C 25.597656 -49.015625 24.046875 -47.910156 24.046875 -45.703125 C 24.046875 -44.347656 25.179688 -43.148438 27.453125 -42.109375 C 27.941406 -41.859375 28.644531 -41.519531 29.5625 -41.09375 C 30.488281 -40.664062 31.550781 -40.160156 32.75 -39.578125 C 33.945312 -38.992188 35.238281 -38.253906 36.625 -37.359375 C 38.007812 -36.472656 39.5 -35.289062 41.09375 -33.8125 C 44.351562 -30.738281 45.984375 -26.6875 45.984375 -21.65625 C 45.984375 -15.082031 44.171875 -9.707031 40.546875 -5.53125 C 36.921875 -1.351562 31.328125 0.796875 23.765625 0.921875 C 20.085938 0.921875 16.757812 0.613281 13.78125 0 C 10.800781 -0.613281 8.203125 -1.8125 5.984375 -3.59375 C 3.773438 -5.375 2.671875 -7.523438 2.671875 -10.046875 C 2.671875 -12.566406 3.128906 -15.066406 4.046875 -17.546875 C 4.972656 -20.035156 5.957031 -21.679688 7 -22.484375 Z M 7 -22.484375 "/></g></g></g><g fill="#ff914d" fill-opacity="1"><g transform="translate(184.912117, 319.647766)"><g><path d="M 19.25 -22.84375 C 19.25 -16.832031 21.523438 -13.828125 26.078125 -13.828125 C 29.023438 -13.828125 31.484375 -14.410156 33.453125 -15.578125 C 34.367188 -15.578125 35.117188 -13.992188 35.703125 -10.828125 C 36.285156 -7.660156 36.578125 -5.507812 36.578125 -4.375 C 36.578125 -3.238281 36.425781 -2.488281 36.125 -2.125 C 32.863281 -0.09375 28.40625 0.921875 22.75 0.921875 C 17.101562 0.921875 12.296875 -1.179688 8.328125 -5.390625 C 4.367188 -9.597656 2.390625 -15.34375 2.390625 -22.625 C 2.390625 -29.90625 4.335938 -35.785156 8.234375 -40.265625 C 12.140625 -44.742188 17.332031 -46.984375 23.8125 -46.984375 C 30.300781 -46.984375 34.800781 -45.421875 37.3125 -42.296875 C 37.863281 -41.617188 38.140625 -40.617188 38.140625 -39.296875 C 38.140625 -37.972656 37.894531 -36.359375 37.40625 -34.453125 C 36.300781 -30.523438 34.859375 -28.253906 33.078125 -27.640625 C 32.828125 -27.578125 32.472656 -27.546875 32.015625 -27.546875 C 31.554688 -27.546875 30.988281 -27.914062 30.3125 -28.65625 C 27.914062 -31.050781 25.992188 -32.25 24.546875 -32.25 C 23.109375 -32.25 21.863281 -31.507812 20.8125 -30.03125 C 19.769531 -28.5625 19.25 -26.164062 19.25 -22.84375 Z M 19.25 -22.84375 "/></g></g></g><g fill="#ff914d" fill-opacity="1"><g transform="translate(223.97643, 319.647766)"><g><path d="M 8.140625 -5.4375 C 4.304688 -9.675781 2.390625 -15.539062 2.390625 -23.03125 C 2.390625 -30.53125 4.304688 -36.394531 8.140625 -40.625 C 11.984375 -44.863281 17.160156 -46.984375 23.671875 -46.984375 C 30.191406 -46.984375 35.351562 -44.863281 39.15625 -40.625 C 42.96875 -36.394531 44.875 -30.53125 44.875 -23.03125 C 44.875 -15.539062 42.96875 -9.675781 39.15625 -5.4375 C 35.351562 -1.195312 30.191406 0.921875 23.671875 0.921875 C 17.160156 0.921875 11.984375 -1.195312 8.140625 -5.4375 Z M 23.71875 -31.609375 C 20.25 -31.609375 18.515625 -28.78125 18.515625 -23.125 C 18.515625 -17.476562 20.25 -14.65625 23.71875 -14.65625 C 27.195312 -14.65625 28.9375 -17.476562 28.9375 -23.125 C 28.9375 -28.78125 27.195312 -31.609375 23.71875 -31.609375 Z M 23.71875 -31.609375 "/></g></g></g><g fill="#ff914d" fill-opacity="1"><g transform="translate(271.240561, 319.647766)"><g><path d="M 3.6875 -45.515625 C 3.6875 -46.191406 6.328125 -46.53125 11.609375 -46.53125 C 16.890625 -46.53125 19.53125 -46.191406 19.53125 -45.515625 L 19.53125 -18.609375 C 19.53125 -15.535156 20.515625 -14 22.484375 -14 C 23.953125 -14 25.609375 -14.644531 27.453125 -15.9375 L 27.453125 -45.515625 C 27.453125 -46.128906 30.0625 -46.4375 35.28125 -46.4375 C 40.507812 -46.4375 43.125 -46.128906 43.125 -45.515625 L 43.125 -15.296875 L 45.515625 -15.296875 C 47.609375 -15.296875 48.65625 -13.300781 48.65625 -9.3125 C 48.65625 -7.28125 48.222656 -5.21875 47.359375 -3.125 C 46.128906 -0.425781 44.472656 0.921875 42.390625 0.921875 C 38.273438 0.921875 35.234375 -0.765625 33.265625 -4.140625 L 33.171875 -4.046875 C 29.421875 -0.734375 25.394531 0.921875 21.09375 0.921875 C 15.132812 0.921875 10.742188 -0.566406 7.921875 -3.546875 C 5.097656 -6.523438 3.6875 -11.457031 3.6875 -18.34375 Z M 3.6875 -45.515625 "/></g></g></g><g fill="#ff914d" fill-opacity="1"><g transform="translate(321.360805, 319.647766)"><g><path d="M 25.34375 -0.546875 C 25.34375 0.179688 22.757812 0.546875 17.59375 0.546875 C 11.457031 0.304688 8.390625 -0.0859375 8.390625 -0.640625 L 8.390625 -33.265625 L 3.6875 -33.265625 C 2.457031 -33.265625 1.84375 -35.382812 1.84375 -39.625 C 1.84375 -40.726562 1.945312 -42.078125 2.15625 -43.671875 C 2.375 -45.273438 2.820312 -46.078125 3.5 -46.078125 L 8.390625 -46.078125 L 8.390625 -54.171875 C 8.390625 -55.398438 10.984375 -56.015625 16.171875 -56.015625 C 21.359375 -56.015625 23.953125 -55.523438 23.953125 -54.546875 L 23.953125 -48.65625 L 24.046875 -46.078125 L 31.875 -46.078125 C 32.925781 -46.078125 33.453125 -43.925781 33.453125 -39.625 C 33.453125 -35.320312 32.925781 -33.171875 31.875 -33.171875 L 25.34375 -33.171875 Z M 25.34375 -0.546875 "/></g></g></g></svg>